<?xml version="1.0" encoding="utf-8"?>
<svg viewBox="110.456 327.702 128 128" xmlns="http://www.w3.org/2000/svg" xmlns:bx="https://boxy-svg.com">
  <rect style="stroke: rgb(0, 0, 0); fill: rgb(9, 9, 11);" x="110.456" y="327.702" width="128" height="128" transform="matrix(1, 0, 0, 1, 1.4210854715202004e-14, -2.842170943040401e-14)"/>
  <path d="M 145.233 358.859 L 201.015 358.859 L 201.015 374.548 L 164.894 374.548 L 164.894 389.298 L 196.184 389.298 L 196.184 402.04 L 165.894 402.04 L 165.894 431.873 L 145.233 431.873 L 145.233 358.859 Z" style="fill: rgb(236, 214, 28); paint-order: fill; transform-origin: 173.124px 395.366px;" transform="matrix(0.994522213936, 0.104528002441, -0.104528002441, 0.994522213936, 0.000022332649, 0.00004473564)"/>
  <g transform="matrix(1.176481008529663, 0, 0, 1.1807589530944824, -64.18048095703125, 172.73484802246094)" style="">
    <path style="stroke-linecap: round; fill: none; stroke: rgb(255, 0, 0); stroke-width: 6px;" d="M 210.905 150.303 L 212.75400000000002 152.15200000000002 C 214.60299999999998 154.001 218.30100000000002 157.69899999999998 218.00516666666667 161.323 C 217.70933333333332 164.947 213.41966666666667 168.49699999999999 211.2748333333333 170.27200000000002 L 209.13 172.047" bx:d="M 210.905 150.303 U 221.999 161.397 U 209.13 172.047 1@e642350a"/>
    <path style="stroke-linecap: round; fill: none; stroke: rgb(255, 0, 0); stroke-width: 6px; transform-origin: 299.357px 200.215px;" d="M 221.043 177.887 L 222.22633333333337 175.89016666666666 C 223.40966666666668 173.89333333333335 225.77633333333333 169.89966666666666 229.1045 169.97366666666667 C 232.43266666666668 170.0476666666667 236.72233333333335 174.18933333333334 238.86716666666666 176.26016666666666 L 241.012 178.331" bx:d="M 221.043 177.887 U 228.143 165.906 U 241.012 178.331 1@bee2de62"/>
    <path style="stroke-linecap: round; fill: none; stroke: rgb(255, 0, 0); stroke-width: 6px;" d="M 247.593 170.159 L 245.30016666666666 168.5318333333333 C 243.00733333333332 166.90466666666666 238.42166666666665 163.65033333333332 238.27366666666668 160.24816666666666 C 238.1256666666667 156.846 242.41533333333336 153.29600000000002 244.56016666666665 151.521 L 246.705 149.746" bx:d="M 247.593 170.159 U 233.836 160.396 U 246.705 149.746 1@e0011416"/>
    <path style="stroke-linecap: round; fill: none; stroke: rgb(255, 0, 0); stroke-width: 6px;" d="M 237.568 141.615 L 236.31066666666666 143.46400000000003 C 235.05333333333337 145.31300000000002 232.53866666666667 149.011 229.0625 149.159 C 225.58633333333333 149.307 221.14866666666668 145.905 218.92983333333333 144.20399999999998 L 216.711 142.503" bx:d="M 237.568 141.615 U 230.024 152.709 U 216.711 142.503 1@7af03c1d"/>
  </g>
  <g transform="matrix(1.176481008529663, 0, 0, 1.1807589530944824, 123.23990631103517, 147.06040954589844)" style="">
    <path style="stroke-linecap: round; fill: none; stroke-width: 2px; stroke: rgb(255, 28, 0);" d="M 52.043 172.049 L 53.891999999999996 173.898 C 55.74100000000001 175.74699999999999 59.439 179.44500000000002 59.14316666666667 183.069 C 58.84733333333333 186.69299999999998 54.55766666666667 190.24300000000002 52.41283333333333 192.01800000000003 L 50.268 193.793" bx:d="M 52.043 172.049 U 63.137 183.143 U 50.268 193.793 1@6589b426"/>
    <path style="stroke-linecap: round; fill: none; stroke-width: 2px; stroke: rgb(255, 28, 0); transform-origin: 139.645px 221.959px;" d="M 61.331 199.633 L 62.51433333333333 197.63616666666667 C 63.69766666666667 195.63933333333333 66.06433333333332 191.64566666666667 69.3925 191.71966666666665 C 72.72066666666666 191.79366666666667 77.01033333333334 195.93533333333335 79.15516666666666 198.00616666666667 L 81.3 200.077" bx:d="M 61.331 199.633 U 68.431 187.652 U 81.3 200.077 1@bcad556a"/>
    <path style="stroke-linecap: round; fill: none; stroke-width: 2px; stroke: rgb(255, 28, 0);" d="M 87.731 191.905 L 85.43816666666667 190.27783333333332 C 83.14533333333333 188.65066666666667 78.55966666666667 185.39633333333333 78.41166666666668 181.99433333333332 C 78.26366666666667 178.59233333333336 82.55333333333334 175.04266666666663 84.69816666666667 173.26783333333333 L 86.843 171.493" bx:d="M 87.731 191.905 U 73.974 182.142 U 86.843 171.493 1@85649b03"/>
    <path style="stroke-linecap: round; fill: none; stroke-width: 2px; stroke: rgb(255, 28, 0);" d="M 78.706 163.361 L 77.44866666666667 165.21 C 76.19133333333333 167.059 73.67666666666668 170.75699999999998 70.20066666666668 170.905 C 66.72466666666666 171.053 62.28733333333334 167.65099999999998 60.06866666666667 165.95000000000002 L 57.85 164.249" bx:d="M 78.706 163.361 U 71.162 174.455 U 57.85 164.249 1@b30afd4c"/>
  </g>
</svg>